<svg xmlns="http://www.w3.org/2000/svg" id="Layer_2" data-name="Layer 2" width="953.72" height="91.67" viewBox="0 0 953.72 91.67"><defs><style>      .cls-1 {        fill: #84cdba;      }      .cls-2 {        fill: #231f20;      }      .cls-3 {        fill: #4470b7;      }    </style></defs><g id="Layer_1-2" data-name="Layer 1"><g><path class="cls-1" d="m51.95,6.1c16.17,14.81,17.3,41.86,17.3,41.86h-34.17L51.95,6.1Z"/><path class="cls-1" d="m95.69,6.1c16.17,14.81,17.3,41.86,17.3,41.86h-34.17L95.69,6.1Z"/><path class="cls-1" d="m138.66,6.1c16.17,14.81,17.3,41.86,17.3,41.86h-34.17l16.87-41.86Z"/><path class="cls-3" d="m51.95,6.1l-18.05,81.9c-.18.8-.38,1.58-.61,2.34H0L15.45,20.2C19.63,1.18,39.07-6.34,51.95,6.1Z"/><path class="cls-3" d="m95.9,6.1l-18.05,81.9c-.18.8-.38,1.58-.61,2.34h-33.31l15.45-70.13C63.58,1.18,83.02-6.34,95.9,6.1Z"/><path class="cls-3" d="m138.87,6.1l-18.04,81.9c-.18.8-.38,1.58-.61,2.34h-33.31l15.45-70.13c4.19-19.02,23.63-26.54,36.51-14.11Z"/></g><g><path class="cls-2" d="m201.87,70.41c0,12.54-2.95,20.95-18.11,20.95-2.98,0-5.62-.32-7.34-.65v-11.3c1.25.13,2.93.34,4.84.34,6.06,0,6.98-2.82,6.98-8.66V14.39h13.62v56.01Z"/><path class="cls-2" d="m270.04,62.1c0-12.97.22-27.78.45-36.4h-.31c-2.62,14.42-6.83,40.06-11.8,64.65h-12.28c-3.68-22.91-8.05-50.17-10.48-64.86h-.42c.45,8.87.79,24.79.79,37.91v26.95h-12.44V14.39h20.33c3.98,20.99,7.46,42.2,8.99,53.28h.11c1.54-10.31,6.3-33.19,10.27-53.28h19.85v75.96h-13.04v-28.25Z"/><path class="cls-2" d="m316.53,71.23l-3.77,19.12h-13.62s17.59-75.96,17.59-75.96h17.65l17.78,75.96h-14.27l-3.78-19.12h-17.58Zm15.15-11.8c-2.83-14.54-5.1-25.16-6.29-32.41h-.32c-.93,6.99-3.33,18.41-6.13,32.41h12.75Z"/><path class="cls-2" d="m444.72,62.1c0-12.97.22-27.78.45-36.4h-.31c-2.62,14.42-6.83,40.06-11.8,64.65h-12.28c-3.68-22.91-8.04-50.17-10.48-64.86h-.42c.45,8.87.79,24.79.79,37.91v26.95h-12.44V14.39h20.33c3.98,20.99,7.46,42.2,8.99,53.28h.11c1.54-10.31,6.3-33.19,10.27-53.28h19.85v75.96h-13.04v-28.25Z"/><path class="cls-2" d="m492.49,14.39v52.26c0,6.22,1.55,13.61,9.91,13.61s9.82-6.22,9.82-13.52V14.39h13.62v52.56c0,13.64-5.32,24.72-23.67,24.72s-23.32-10.42-23.32-24.73V14.39h13.64Z"/><path class="cls-2" d="m546.78,14.39h13.62v64.35h25.99l-1.32,11.61h-38.29V14.39Z"/><path class="cls-2" d="m603.37,26.3h-16.23v-11.9h46.08v11.9h-16.23v64.05h-13.62V26.3Z"/><path class="cls-2" d="m663.23,14.39v75.96h-13.62V14.39h13.62Z"/><path class="cls-2" d="m685.65,14.39h13.62v64.35h25.99l-1.32,11.61h-38.29V14.39Z"/><path class="cls-2" d="m754.62,14.39v75.96h-13.62V14.39h13.62Z"/><path class="cls-2" d="m777.03,90.35V14.39h15.45c15.7,41.98,18.72,49.98,19.63,53.71h.11c-.65-9.12-.67-20.31-.67-32.75V14.39h12.15v75.96h-14.81c-16.22-44.76-19.1-52.82-20.08-56.31h-.11c.56,9.36.58,20.54.58,34.15v22.15h-12.24Z"/><path class="cls-2" d="m845.85,14.39h13.43v34.05c4.21-6.92,13.92-24.2,20.04-34.05h15.68l-19.6,29.68,19.99,46.28h-15.11l-14.16-34.92-6.84,9.62v25.3h-13.43V14.39Z"/><path class="cls-2" d="m920.56,69.08c.66,6.3,3.19,11.85,10.13,11.85s9.18-4.19,9.18-9.85c0-6.24-3.07-9.87-12.68-14.45-13.01-6.18-18.1-11.64-18.1-22.92,0-12.18,7.83-20.5,21.57-20.5,17.09,0,21.3,11.56,21.52,21.45h-13.33c-.44-4.34-1.56-10.73-8.44-10.73-5.38,0-7.79,3.49-7.79,8.65,0,5.47,2.43,8.03,11.34,12.16,13.63,6.3,19.75,12.42,19.75,25.13,0,11.93-7.39,21.79-23.43,21.79-17.47,0-22.79-11.18-23.26-22.57h13.54Z"/></g></g></svg>